<?xml version="1.0" standalone="no"?>
<!DOCTYPE svg PUBLIC "-//W3C//DTD SVG 20010904//EN"
 "http://www.w3.org/TR/2001/REC-SVG-20010904/DTD/svg10.dtd">
<svg version="1.0" xmlns="http://www.w3.org/2000/svg"
 width="128.000000pt" height="128.000000pt" viewBox="0 0 128.000000 128.000000"
 preserveAspectRatio="xMidYMid meet">
<metadata>
Created by potrace 1.14, written by Peter Selinger 2001-2017
</metadata>
<g transform="translate(0.000000,128.000000) scale(0.100000,-0.100000)"
fill="#000000" stroke="none">
<path d="M372 944 c-30 -12 -92 -80 -92 -100 0 -6 -7 -28 -16 -49 -11 -27 -18
-35 -26 -27 -8 8 -17 8 -30 1 -24 -13 -23 -8 7 52 l26 50 -60 -41 c-34 -23
-64 -39 -69 -36 -5 3 -9 31 -10 61 0 70 -7 79 -22 26 -6 -25 -25 -54 -45 -73
-27 -24 -35 -39 -35 -67 0 -35 0 -35 16 -13 24 34 32 26 30 -29 -1 -40 -7 -55
-25 -70 l-23 -19 26 -11 c14 -7 31 -26 39 -43 7 -17 19 -42 25 -56 10 -25 11
-25 13 -2 1 12 2 28 3 35 2 20 71 20 113 -1 55 -28 171 -61 223 -63 45 -2 90
-21 90 -39 0 -5 -7 -7 -15 -4 -8 4 -22 1 -29 -5 -11 -9 -15 -9 -18 1 -3 8 -30
12 -90 11 -99 0 -113 -5 -96 -33 7 -10 16 -16 21 -13 5 3 66 6 135 6 l126 1
22 -40 c12 -21 28 -66 35 -99 l13 -59 13 57 c7 31 22 75 33 97 21 42 27 44
113 42 17 0 27 5 27 14 0 8 4 14 10 14 5 0 7 -7 4 -15 -5 -13 5 -15 67 -13 71
3 89 10 89 35 0 8 -9 9 -35 2 -19 -6 -41 -7 -48 -2 -6 4 -45 6 -84 4 -45 -1
-73 2 -73 8 0 16 22 25 70 28 72 5 137 21 212 54 48 21 82 30 105 27 26 -3 33
0 32 11 -3 33 2 40 36 52 19 7 35 18 36 24 0 5 2 20 4 31 3 12 -4 29 -14 38
-19 17 -19 19 -1 85 11 37 24 79 29 94 14 37 -4 35 -23 -2 -18 -34 -93 -101
-113 -101 -8 0 -11 -4 -8 -10 11 -18 -32 -10 -59 11 -22 18 -26 18 -26 4 0
-32 -33 -11 -36 23 -12 107 -129 178 -236 143 -18 -6 -36 -11 -41 -11 -4 0
-18 -12 -32 -27 l-24 -28 -7 33 c-9 46 -20 48 -34 6 -12 -36 -13 -37 -29 -17
-37 46 -152 66 -219 37z m531 -94 c15 -17 27 -38 28 -48 0 -9 2 -25 4 -34 4
-21 -11 -33 -20 -18 -3 5 -21 10 -40 10 -29 0 -34 4 -37 28 l-3 27 -18 -30
c-13 -23 -17 -25 -16 -10 1 11 -3 31 -8 45 -6 14 -8 31 -6 38 3 6 1 12 -4 12
-12 0 -35 -39 -28 -49 3 -5 -9 -21 -27 -36 -32 -27 -32 -27 -41 -6 -20 44 27
99 98 113 38 8 90 -11 118 -42z m-381 30 c34 -14 54 -32 62 -56 6 -20 2 -22
-34 -26 -47 -4 -60 7 -34 28 16 12 13 12 -13 -1 -18 -8 -33 -22 -33 -30 0 -48
-12 -55 -68 -37 -26 8 -53 17 -59 18 -27 7 21 88 62 105 28 11 89 11 117 -1z
m216 -177 c2 -7 -6 -21 -17 -32 l-20 -20 20 -14 c15 -11 18 -21 14 -39 -7 -28
15 -58 42 -58 13 0 12 -5 -7 -25 -13 -14 -34 -25 -47 -25 -24 0 -32 -15 -10
-23 8 -3 5 -12 -11 -28 -17 -19 -26 -21 -40 -13 -24 14 -52 6 -52 -17 0 -16 5
-18 35 -13 l35 5 -15 -41 c-25 -71 -30 -76 -44 -38 -7 18 -17 40 -21 49 -5 9
-6 26 -3 38 4 14 1 21 -9 21 -8 0 -23 9 -32 19 -16 18 -16 19 11 29 l28 10
-36 1 c-24 1 -43 9 -59 26 -13 14 -22 25 -19 26 2 1 20 2 39 3 48 2 58 11 55
46 -1 16 1 30 6 30 5 0 9 -15 9 -34 0 -36 15 -48 49 -39 17 4 20 2 15 -11 -4
-10 -13 -15 -20 -12 -16 6 -19 -10 -4 -19 20 -12 51 7 70 45 27 54 26 58 -20
54 -31 -3 -38 0 -33 11 3 8 11 15 19 15 8 0 14 5 14 11 0 6 7 26 16 45 16 33
34 40 42 17z m412 -9 c0 -8 -4 -14 -9 -14 -11 0 -22 26 -14 34 9 9 23 -3 23
-20z m-1010 -14 c0 -5 -4 -10 -10 -10 -5 0 -10 5 -10 10 0 6 5 10 10 10 6 0
10 -4 10 -10z m345 -68 c-9 -9 -60 -9 -72 1 -10 7 -7 14 10 27 21 18 23 18 44
-2 13 -12 21 -24 18 -26z m515 13 c7 -9 8 -15 2 -15 -5 0 -12 7 -16 15 -3 8
-4 15 -2 15 2 0 9 -7 16 -15z m-784 -22 c-7 -7 -26 7 -26 19 0 6 6 6 15 -2 9
-7 13 -15 11 -17z m314 17 c0 -5 -5 -10 -11 -10 -5 0 -7 5 -4 10 3 6 8 10 11
10 2 0 4 -4 4 -10z m433 -4 c4 -10 1 -13 -9 -9 -15 6 -19 23 -5 23 5 0 11 -7
14 -14z m-686 -15 c11 -14 12 -14 13 2 0 9 5 17 10 17 13 0 13 -6 0 -30 -14
-26 -64 -20 -68 7 -4 24 27 27 45 4z m788 9 c3 -5 0 -10 -9 -10 -8 0 -16 -6
-19 -12 -2 -7 -7 -10 -11 -7 -10 9 5 39 19 39 8 0 17 -4 20 -10z m-631 -90
c14 -15 16 -21 6 -18 -8 3 -39 11 -68 19 -35 8 -48 15 -37 19 32 11 78 2 99
-20z m485 21 c11 -7 3 -12 -30 -21 -24 -7 -47 -14 -51 -17 -5 -2 -8 0 -8 6 0
11 47 40 65 40 6 1 16 -3 24 -8z"/>
</g>
</svg>
